<svg xmlns="http://www.w3.org/2000/svg" xmlns:xlink="http://www.w3.org/1999/xlink" fill="none" version="1.1" width="14" height="14" viewBox="0 0 14 14"><defs><clipPath id="master_svg0_1044_46"><rect x="0" y="0" width="14" height="14" rx="0"/></clipPath><mask id="master_svg1_1044_49" style="mask-type:alpha" maskUnits="objectBoundingBox"><g><path d="M10.139970537567137,0C10.530740537567139,0,10.914450537567138,0.0293359,11.288930537567138,0.0858662L11.288910537567139,2.67691L9.002670537567138,3.50649L8.944730537567139,3.52807C7.599340537567139,4.04249,6.711440537567139,5.30601,6.711440537567139,6.71575L6.711440537567139,8.95495L6.704320537567138,8.95497C5.858360537567139,8.95497,5.172590537567139,8.28818,5.172590537567139,7.46565L5.172590537567139,1.85218C6.488660537567139,0.700726,8.230160537567139,0,10.139970537567137,0ZM4.253550537567139,2.8162C3.3885205375671386,3.9069,2.836980537567139,5.24474,2.7301220375671384,6.70214L2.7110705375671387,6.70219L2.7110705375671387,13.9012C3.109588537567139,13.9662,3.5189795375671387,14,3.936500537567139,14C4.918320537567139,14,5.855180537567138,13.8129,6.711440537567139,13.4733L6.711440537567139,9.84855L6.704320537567138,9.84856C5.366910537567138,9.84856,4.279710537567139,8.80693,4.254020537567139,7.51252L4.253550537567139,7.46565L4.253550537567139,2.8162ZM7.630470537567139,9.67186L7.630470537567139,13.0336C9.41479053756714,12.0235,10.722020537567138,10.304,11.14348053756714,8.2725L7.633370537567139,9.67071C7.6324105375671385,9.67109,7.631440537567139,9.67148,7.630470537567139,9.67186ZM11.27735053756714,7.2535C11.279340537567139,7.21866,11.281070537567139,7.18376,11.282540537567138,7.14879L11.288870537567139,7.14876L11.28890053756714,3.63071L9.323990537567138,4.34369C8.32290053756714,4.70694,7.653460537567138,5.627,7.6310505375671385,6.6621L7.630470537567139,6.71575L7.630470537567139,8.70619L11.27735053756714,7.2535Z" fill-rule="evenodd" fill="#FFFFFF" fill-opacity="1"/></g></mask><linearGradient x1="0.5" y1="0" x2="0.5" y2="1" id="master_svg2_1044_038"><stop offset="0%" stop-color="#FF5D34" stop-opacity="1"/><stop offset="100%" stop-color="#FF3466" stop-opacity="1"/></linearGradient></defs><g clip-path="url(#master_svg0_1044_46)"><g><g mask="url(#master_svg1_1044_49)"><g><path d="M10.139970537567137,-5.06268e-15C10.530740537567139,-5.06268e-15,10.914450537567138,0.0293359,11.288930537567138,0.0858662L11.288870537567139,7.14876L11.282540537567138,7.14879C11.122070537567138,10.959,7.8945405375671385,14,3.936500537567139,14C3.5189795375671387,14,3.109588537567139,13.9662,2.7110708725811388,13.9012L2.7110705375671253,6.70219L2.7301220375671384,6.70214C3.0047875375671387,2.9561,6.217340537567139,-5.06268e-15,10.139970537567137,-5.06268e-15Z" fill-rule="evenodd" fill="url(#master_svg2_1044_038)" fill-opacity="1" style="mix-blend-mode:passthrough"/></g></g></g></g></svg>